<?xml version="1.0" standalone="no"?>
<!DOCTYPE svg PUBLIC "-//W3C//DTD SVG 20010904//EN"
 "http://www.w3.org/TR/2001/REC-SVG-20010904/DTD/svg10.dtd">
<svg version="1.0" xmlns="http://www.w3.org/2000/svg"
 width="513.000000pt" height="513.000000pt" viewBox="0 0 513.000000 513.000000"
 preserveAspectRatio="xMidYMid meet">
<metadata>
Created by potrace 1.11, written by Peter Selinger 2001-2013
</metadata>
<g transform="translate(0.000000,513.000000) scale(0.100000,-0.100000)"
fill="#000000" stroke="none">
<path d="M2860 4610 l-35 -6 41 -7 c274 -47 705 -257 974 -474 90 -73 250
-233 321 -322 464 -583 584 -1367 314 -2068 -115 -300 -273 -535 -513 -764
-59 -56 -100 -98 -92 -94 110 62 297 212 411 331 380 397 579 888 579 1429 0
520 -182 992 -534 1388 -265 297 -735 526 -1186 576 -118 13 -234 18 -280 11z"/>
<path d="M2620 4591 c8 -5 56 -11 105 -15 79 -6 169 -19 270 -40 24 -5 26 -5
9 3 -51 23 -256 61 -325 61 -45 0 -68 -4 -59 -9z"/>
<path d="M2358 4545 c-720 -203 -1256 -742 -1452 -1459 -173 -628 -37 -1291
373 -1816 164 -210 344 -357 597 -483 271 -135 538 -203 849 -214 217 -8 351
8 470 53 372 144 727 437 961 794 157 240 255 485 310 780 21 113 30 457 15
586 -68 574 -360 1080 -825 1429 -295 220 -655 340 -1056 351 -141 4 -163 2
-242 -21z m247 -534 c11 -7 70 -77 132 -154 62 -78 177 -225 257 -326 l146
-184 0 342 0 341 135 0 135 0 0 -590 0 -590 -95 0 c-64 0 -105 5 -124 14 -16
9 -140 157 -282 336 l-254 322 -3 -336 -2 -336 -135 0 -135 0 0 591 0 591 103
-4 c60 -2 110 -9 122 -17z m985 -1331 c0 -6 -100 -10 -277 -11 -407 -1 -449
-13 -83 -23 533 -14 528 -19 -50 -44 -289 -13 -538 -24 -554 -25 -15 -1 -29 3
-30 8 0 6 91 15 239 22 316 15 353 19 215 22 -452 11 -784 27 -787 38 -4 10
66 13 314 16 863 7 1013 7 1013 -3z m-984 -285 c12 -8 135 -159 275 -335 l254
-322 3 336 2 336 135 0 135 0 0 -590 0 -590 -89 0 c-121 0 -140 9 -208 95 -32
40 -148 188 -258 328 l-200 254 -3 -339 -2 -338 -135 0 -135 0 0 590 0 590
103 0 c73 0 108 -4 123 -15z"/>
<path d="M3920 4015 c491 -516 693 -1201 554 -1883 -78 -390 -259 -739 -528
-1019 -184 -192 -350 -316 -586 -436 -63 -33 -106 -57 -95 -54 11 3 49 13 85
22 78 20 237 78 302 111 104 52 357 281 481 434 185 229 334 521 401 785 50
200 60 284 60 525 -1 253 -15 358 -78 575 -107 371 -327 721 -609 967 l-72 63
85 -90z"/>
<path d="M4736 3454 c124 -296 172 -562 161 -893 -11 -333 -73 -574 -233 -896
-145 -293 -359 -541 -648 -750 -94 -69 -472 -262 -696 -357 -130 -55 -112 -55
96 -3 524 133 971 475 1267 970 293 491 357 1110 172 1671 -39 118 -146 364
-159 364 -2 0 15 -48 40 -106z"/>
<path d="M2276 585 c209 -70 415 -98 534 -73 l65 14 -151 7 c-157 7 -338 33
-462 67 -107 29 -101 23 14 -15z"/>
<path d="M3325 599 c-38 -11 -133 -31 -210 -45 -77 -13 -174 -33 -215 -44
l-75 -20 140 4 c131 3 146 5 240 39 102 36 218 86 200 85 -5 0 -41 -9 -80 -19z"/>
</g>
</svg>
